<mxfile host="app.diagrams.net" modified="2020-05-08T08:27:54.728Z" agent="5.0 (Macintosh; Intel Mac OS X 10_14_6) AppleWebKit/605.1.15 (KHTML, like Gecko) Version/13.1 Safari/605.1.15" etag="j5Z25TeTD8leLEC0Rs2f" version="13.0.9" type="github">
  <diagram id="C5RBs43oDa-KdzZeNtuy" name="Page-1">
    <mxGraphModel dx="1426" dy="842" grid="1" gridSize="10" guides="1" tooltips="1" connect="1" arrows="1" fold="1" page="1" pageScale="1" pageWidth="827" pageHeight="1169" math="0" shadow="0">
      <root>
        <mxCell id="WIyWlLk6GJQsqaUBKTNV-0" />
        <mxCell id="WIyWlLk6GJQsqaUBKTNV-1" parent="WIyWlLk6GJQsqaUBKTNV-0" />
        <mxCell id="XDg_C0e3YNIxig_hy6By-0" value="" style="edgeStyle=orthogonalEdgeStyle;rounded=0;orthogonalLoop=1;jettySize=auto;html=1;" edge="1" parent="WIyWlLk6GJQsqaUBKTNV-1" target="XDg_C0e3YNIxig_hy6By-2">
          <mxGeometry relative="1" as="geometry">
            <mxPoint x="485" y="370" as="sourcePoint" />
          </mxGeometry>
        </mxCell>
        <mxCell id="XDg_C0e3YNIxig_hy6By-1" value="" style="edgeStyle=orthogonalEdgeStyle;rounded=0;orthogonalLoop=1;jettySize=auto;html=1;" edge="1" parent="WIyWlLk6GJQsqaUBKTNV-1" source="XDg_C0e3YNIxig_hy6By-2" target="XDg_C0e3YNIxig_hy6By-4">
          <mxGeometry relative="1" as="geometry" />
        </mxCell>
        <mxCell id="XDg_C0e3YNIxig_hy6By-2" value="predicate" style="rounded=0;whiteSpace=wrap;html=1;fillColor=#dae8fc;strokeColor=#6c8ebf;" vertex="1" parent="WIyWlLk6GJQsqaUBKTNV-1">
          <mxGeometry x="430" y="420" width="110" height="50" as="geometry" />
        </mxCell>
        <mxCell id="XDg_C0e3YNIxig_hy6By-3" value="" style="edgeStyle=orthogonalEdgeStyle;rounded=0;orthogonalLoop=1;jettySize=auto;html=1;" edge="1" parent="WIyWlLk6GJQsqaUBKTNV-1" source="XDg_C0e3YNIxig_hy6By-4" target="XDg_C0e3YNIxig_hy6By-6">
          <mxGeometry relative="1" as="geometry" />
        </mxCell>
        <mxCell id="XDg_C0e3YNIxig_hy6By-4" value="priority" style="rounded=0;whiteSpace=wrap;html=1;fillColor=#dae8fc;strokeColor=#6c8ebf;" vertex="1" parent="WIyWlLk6GJQsqaUBKTNV-1">
          <mxGeometry x="430" y="520" width="110" height="50" as="geometry" />
        </mxCell>
        <mxCell id="XDg_C0e3YNIxig_hy6By-14" value="" style="edgeStyle=orthogonalEdgeStyle;rounded=0;orthogonalLoop=1;jettySize=auto;html=1;" edge="1" parent="WIyWlLk6GJQsqaUBKTNV-1" source="XDg_C0e3YNIxig_hy6By-6" target="XDg_C0e3YNIxig_hy6By-13">
          <mxGeometry relative="1" as="geometry" />
        </mxCell>
        <mxCell id="XDg_C0e3YNIxig_hy6By-6" value="绑定Node" style="rounded=0;whiteSpace=wrap;html=1;fillColor=#dae8fc;strokeColor=#6c8ebf;" vertex="1" parent="WIyWlLk6GJQsqaUBKTNV-1">
          <mxGeometry x="430" y="630" width="110" height="50" as="geometry" />
        </mxCell>
        <mxCell id="XDg_C0e3YNIxig_hy6By-7" value="开始" style="ellipse;whiteSpace=wrap;html=1;aspect=fixed;fillColor=#d5e8d4;strokeColor=#82b366;" vertex="1" parent="WIyWlLk6GJQsqaUBKTNV-1">
          <mxGeometry x="460" y="320" width="50" height="50" as="geometry" />
        </mxCell>
        <mxCell id="XDg_C0e3YNIxig_hy6By-8" value="&lt;h3&gt;&lt;br&gt;&lt;/h3&gt;" style="rounded=1;whiteSpace=wrap;html=1;fillColor=#eeeeee;strokeColor=#36393d;shadow=0;comic=0;glass=0;opacity=30;perimeterSpacing=0;overflow=visible;" vertex="1" parent="WIyWlLk6GJQsqaUBKTNV-1">
          <mxGeometry x="380" y="380" width="200" height="220" as="geometry" />
        </mxCell>
        <mxCell id="XDg_C0e3YNIxig_hy6By-9" value="&lt;b&gt;筛选节点过程&lt;/b&gt;" style="text;html=1;align=center;verticalAlign=middle;resizable=0;points=[];autosize=1;" vertex="1" parent="WIyWlLk6GJQsqaUBKTNV-1">
          <mxGeometry x="390" y="390" width="90" height="20" as="geometry" />
        </mxCell>
        <mxCell id="XDg_C0e3YNIxig_hy6By-10" style="edgeStyle=orthogonalEdgeStyle;rounded=0;orthogonalLoop=1;jettySize=auto;html=1;exitX=1;exitY=0.5;exitDx=0;exitDy=0;exitPerimeter=0;entryX=0.5;entryY=0;entryDx=0;entryDy=0;" edge="1" parent="WIyWlLk6GJQsqaUBKTNV-1" source="XDg_C0e3YNIxig_hy6By-11" target="XDg_C0e3YNIxig_hy6By-7">
          <mxGeometry relative="1" as="geometry" />
        </mxCell>
        <mxCell id="XDg_C0e3YNIxig_hy6By-11" value="等待调度队列" style="strokeWidth=2;html=1;shape=mxgraph.flowchart.direct_data;whiteSpace=wrap;rounded=1;shadow=0;glass=0;comic=0;fillColor=#dae8fc;strokeColor=#6c8ebf;" vertex="1" parent="WIyWlLk6GJQsqaUBKTNV-1">
          <mxGeometry x="330" y="233" width="130" height="40" as="geometry" />
        </mxCell>
        <mxCell id="XDg_C0e3YNIxig_hy6By-12" value="获取pod" style="text;html=1;align=center;verticalAlign=middle;resizable=0;points=[];autosize=1;" vertex="1" parent="WIyWlLk6GJQsqaUBKTNV-1">
          <mxGeometry x="490" y="280" width="60" height="20" as="geometry" />
        </mxCell>
        <mxCell id="XDg_C0e3YNIxig_hy6By-13" value="结束" style="ellipse;whiteSpace=wrap;html=1;aspect=fixed;fillColor=#d5e8d4;strokeColor=#82b366;" vertex="1" parent="WIyWlLk6GJQsqaUBKTNV-1">
          <mxGeometry x="460" y="720" width="50" height="50" as="geometry" />
        </mxCell>
      </root>
    </mxGraphModel>
  </diagram>
</mxfile>
